<svg width="150" height="52" viewBox="0 0 1500 212">
    <g transform="matrix(1,0,0,1,-0.9090909090909918,-1.0514183183940133)">
        <svg viewBox="0 0 396 56" data-background-color="#1a1a1a" preserveAspectRatio="xMidYMid meet" height="212"
            width="1500">
            <g id="tight-bounds" transform="matrix(1,0,0,1,0.2400000000000091,0.27773314070785204)">
                <svg viewBox="0 0 395.52 55.444533718584296" height="55.444533718584296" width="395.52">
                    <g>
                        <svg viewBox="0 0 395.52 55.444533718584296" height="55.444533718584296" width="395.52">
                            <g>
                                <svg viewBox="0 0 395.52 55.444533718584296" height="55.444533718584296" width="395.52">
                                    <g id="textblocktransform">
                                        <svg viewBox="0 0 395.52 55.444533718584296" height="55.444533718584296"
                                            width="395.52" id="textblock">
                                            <g>
                                                <svg viewBox="0 0 395.52 55.444533718584296" height="55.444533718584296"
                                                    width="395.52">
                                                    <g transform="matrix(1,0,0,1,0,0)">
                                                        <svg width="395.52"
                                                            viewBox="1.6 -38.55 276.0508333333333 38.699999999999996"
                                                            height="55.444533718584296"
                                                            data-palette-color="currentColor">
                                                            <g class="wordmark-text-0" data-fill-palette-color="primary"
                                                                id="text-0">
                                                                <path
                                                                    d="M6.7 0L6.7 0Q4.1 0 2.85-1.55 1.6-3.1 1.6-5.7L1.6-5.7 1.6-29Q1.6-32.8 3.68-34.6 5.75-36.4 8.65-36.4L8.65-36.4Q11.4-36.4 13.33-34.6 15.25-32.8 16.15-28.9L16.15-28.9 20.05-11.95 21.35-11.95 25.25-28.9Q26.15-32.8 28.13-34.6 30.1-36.4 32.85-36.4L32.85-36.4Q35.75-36.4 37.83-34.6 39.9-32.8 39.9-29L39.9-29 39.9-5.7Q39.9-3.1 38.63-1.55 37.35 0 34.75 0L34.75 0Q32.25 0 30.9-1.55 29.55-3.1 29.55-5.7L29.55-5.7 29.55-19.15Q29.55-19.65 29.43-20.08 29.3-20.5 28.75-20.5L28.75-20.5Q28.3-20.5 28.1-20.08 27.9-19.65 27.8-19.15L27.8-19.15 25.9-6.55Q25.55-4.5 25.08-3.03 24.6-1.55 23.6-0.78 22.6 0 20.7 0L20.7 0Q18.85 0 17.82-0.78 16.8-1.55 16.32-3.03 15.85-4.5 15.55-6.55L15.55-6.55 13.6-19.15Q13.55-19.65 13.35-20.08 13.15-20.5 12.65-20.5L12.65-20.5Q12.15-20.5 12-20.08 11.85-19.65 11.85-19.15L11.85-19.15 11.85-5.7Q11.85-3.1 10.53-1.55 9.2 0 6.7 0ZM42.65-13L42.65-13Q42.65-16.95 44.22-19.95 45.8-22.95 48.72-24.65 51.65-26.35 55.7-26.35L55.7-26.35Q58.85-26.35 61.37-25.2 63.9-24.05 65.35-22.13 66.8-20.2 66.8-17.9L66.8-17.9Q66.8-15.5 65.4-14.5 64-13.5 61.25-13.5L61.25-13.5 50.75-13.5Q50.75-12.2 51.77-11.35 52.8-10.5 55.25-10.5L55.25-10.5Q56.5-10.5 57.57-10.75 58.65-11 59.77-11.23 60.9-11.45 62.3-11.45L62.3-11.45Q64.3-11.45 65.6-10.03 66.9-8.6 66.9-6.1L66.9-6.1Q66.9-3.15 63.87-1.5 60.85 0.15 55.95 0.15L55.95 0.15Q52.5 0.15 49.47-1.2 46.45-2.55 44.55-5.48 42.65-8.4 42.65-13ZM50.9-15.15L58.85-15.15Q59.6-15.15 59.35-15.85L59.35-15.85Q59.15-16.55 58.15-17.3 57.15-18.05 55.25-18.05L55.25-18.05Q53.05-18.05 51.97-17.1 50.9-16.15 50.9-15.15L50.9-15.15ZM73.84 0L73.84 0Q71.39 0 70.17-1.3 68.95-2.6 68.95-4.55L68.95-4.55 68.95-33.55Q68.95-35.7 70.17-37.13 71.39-38.55 73.84-38.55L73.84-38.55Q76.05-38.55 77.25-37.13 78.45-35.7 78.45-33.65L78.45-33.65 78.45-4.55Q78.45-2.6 77.25-1.3 76.05 0 73.84 0ZM85.64 0L85.64 0Q83.19 0 81.97-1.3 80.74-2.6 80.74-4.55L80.74-4.55 80.74-33.55Q80.74-35.7 81.97-37.13 83.19-38.55 85.64-38.55L85.64-38.55Q87.84-38.55 89.04-37.13 90.24-35.7 90.24-33.65L90.24-33.65 90.24-4.55Q90.24-2.6 89.04-1.3 87.84 0 85.64 0ZM105.34 0.1L105.34 0.1Q99.49 0.1 96.02-3.38 92.54-6.85 92.54-13.2L92.54-13.2Q92.54-17.1 94.14-20.05 95.74-23 98.61-24.68 101.49-26.35 105.34-26.35L105.34-26.35Q109.64-26.35 112.49-24.68 115.34-23 116.77-20.05 118.19-17.1 118.19-13.2L118.19-13.2Q118.19-6.85 115.02-3.38 111.84 0.1 105.34 0.1ZM98.49-14.05L98.49-14.05Q98.49-12.5 100.04-11.88 101.59-11.25 105.34-11.25L105.34-11.25Q109.09-11.25 110.64-11.88 112.19-12.5 112.19-14.05L112.19-14.05Q112.19-15.55 110.64-16.15 109.09-16.75 105.34-16.75L105.34-16.75Q101.59-16.75 100.04-16.15 98.49-15.55 98.49-14.05ZM132.19 0L132.19 0Q129.29 0 127.46-1.9 125.64-3.8 124.14-8.15L124.14-8.15 120.34-19.45Q119.69-21.35 120.29-23.3 120.89-25.25 123.04-25.95L123.04-25.95Q125.04-26.65 126.69-25.85 128.34-25.05 128.99-23.1L128.99-23.1 133.09-10.85Q133.79-8.7 134.54-7.98 135.29-7.25 136.54-7.65L136.54-7.65Q137.59-8 137.86-9.18 138.14-10.35 137.14-13.25L137.14-13.25 135.09-19.45Q134.44-21.4 135.06-23.33 135.69-25.25 137.84-25.95L137.84-25.95Q139.84-26.65 141.49-25.85 143.14-25.05 143.79-23.1L143.79-23.1 147.99-10.3Q148.39-9.15 149.24-8.2 150.09-7.25 151.44-7.65L151.44-7.65Q152.49-8 152.81-9.05 153.14-10.1 152.69-11.5L152.69-11.5Q152.09-13.4 151.36-14.5 150.64-15.6 149.96-16.4 149.29-17.2 148.86-18.1 148.44-19 148.34-20.55L148.34-20.55Q148.24-22.15 149.01-23.38 149.79-24.6 151.11-25.3 152.44-26 154.04-26L154.04-26Q156.49-26 158.01-24.38 159.54-22.75 159.54-20.55L159.54-20.55Q159.54-19.75 159.29-18.45 159.04-17.15 158.64-16.05L158.64-16.05 156.54-10.6Q155.89-8.8 155.06-6.93 154.24-5.05 153.16-3.5 152.09-1.95 150.69-0.98 149.29 0 147.44 0L147.44 0Q144.24 0 142.31-1.65 140.39-3.3 139.29-7.1L139.29-7.1 138.79-7.1Q138.14-4 136.64-2 135.14 0 132.19 0ZM167.14-0.15L167.14-0.15Q164.84-0.15 163.34-1.55 161.84-2.95 161.84-5.1L161.84-5.1 161.84-31.55Q161.84-33.75 163.29-35.23 164.74-36.7 167.09-36.7L167.09-36.7Q169.59-36.7 170.99-35.23 172.39-33.75 172.39-31.65L172.39-31.65 172.39-22.4 181.69-22.4 181.69-31.55Q181.69-33.75 183.14-35.23 184.59-36.7 187.04-36.7L187.04-36.7Q189.49-36.7 190.89-35.23 192.29-33.75 192.29-31.65L192.29-31.65 192.29-5.1Q192.29-2.95 190.81-1.55 189.34-0.15 187.14-0.15L187.14-0.15Q184.74-0.15 183.21-1.55 181.69-2.95 181.69-5.1L181.69-5.1 181.69-15.05 172.39-15.05 172.39-5.1Q172.39-2.95 170.91-1.55 169.44-0.15 167.14-0.15ZM207.78 0.1L207.78 0.1Q201.93 0.1 198.46-3.38 194.98-6.85 194.98-13.2L194.98-13.2Q194.98-17.1 196.58-20.05 198.18-23 201.06-24.68 203.93-26.35 207.78-26.35L207.78-26.35Q212.08-26.35 214.93-24.68 217.78-23 219.21-20.05 220.63-17.1 220.63-13.2L220.63-13.2Q220.63-6.85 217.46-3.38 214.28 0.1 207.78 0.1ZM200.93-14.05L200.93-14.05Q200.93-12.5 202.48-11.88 204.03-11.25 207.78-11.25L207.78-11.25Q211.53-11.25 213.08-11.88 214.63-12.5 214.63-14.05L214.63-14.05Q214.63-15.55 213.08-16.15 211.53-16.75 207.78-16.75L207.78-16.75Q204.03-16.75 202.48-16.15 200.93-15.55 200.93-14.05ZM235.68 0.1L235.68 0.1Q229.83 0.1 226.36-3.38 222.88-6.85 222.88-13.2L222.88-13.2Q222.88-17.1 224.48-20.05 226.08-23 228.96-24.68 231.83-26.35 235.68-26.35L235.68-26.35Q239.98-26.35 242.83-24.68 245.68-23 247.11-20.05 248.53-17.1 248.53-13.2L248.53-13.2Q248.53-6.85 245.36-3.38 242.18 0.1 235.68 0.1ZM228.83-14.05L228.83-14.05Q228.83-12.5 230.38-11.88 231.93-11.25 235.68-11.25L235.68-11.25Q239.43-11.25 240.98-11.88 242.53-12.5 242.53-14.05L242.53-14.05Q242.53-15.55 240.98-16.15 239.43-16.75 235.68-16.75L235.68-16.75Q231.93-16.75 230.38-16.15 228.83-15.55 228.83-14.05ZM259.88 0L259.88 0Q250.78 0 250.78-13.4L250.78-13.4Q250.78-19.2 253.03-22.68 255.28-26.15 259.78-26.15L259.78-26.15Q262.23-26.15 263.75-25.15 265.28-24.15 266.15-22.43 267.03-20.7 267.43-18.45L267.43-18.45 267.58-18.5 267.58-33.65Q267.58-35.7 268.8-37.13 270.03-38.55 272.38-38.55L272.38-38.55Q274.68-38.55 275.8-37.13 276.93-35.7 276.93-33.55L276.93-33.55 276.93-11.05Q276.93-9.35 277.2-7.93 277.48-6.5 277.63-5.1L277.63-5.1Q277.78-3.2 276.85-1.83 275.93-0.45 273.58-0.05L273.58-0.05Q270.53 0.45 269.05-1.1 267.58-2.65 267.58-5.7L267.58-5.7 267.58-7.55 266.63-7.55Q266.63-3.9 264.8-1.95 262.98 0 259.88 0ZM259.13-13.85L259.13-13.85Q259.13-12.3 260.08-11.55 261.03-10.8 263.48-10.8L263.48-10.8Q265.98-10.8 266.93-11.55 267.88-12.3 267.88-13.85L267.88-13.85Q267.88-15.45 266.95-16.18 266.03-16.9 263.53-16.9L263.53-16.9Q261.03-16.9 260.08-16.18 259.13-15.45 259.13-13.85Z"
                                                                    fill="currentColor"
                                                                    data-fill-palette-color="primary">
                                                                </path>
                                                            </g>
                                                        </svg>
                                                    </g>
                                                </svg>
                                            </g>
                                        </svg>
                                    </g>
                                </svg>
                            </g>
                        </svg>
                    </g>
                    <defs>
                    </defs>
                </svg>
                <rect width="395.52" height="55.444533718584296" fill="none" stroke="none" visibility="hidden"></rect>
            </g>
        </svg>
    </g>
</svg>